<svg width="242" height="242" viewBox="0 0 242 242" fill="none" xmlns="http://www.w3.org/2000/svg">
<path d="M127.147 88.9853C130.646 88.9853 133.483 86.4492 133.483 83.3208C133.483 80.1923 130.646 77.6562 127.147 77.6562C123.647 77.6562 120.81 80.1923 120.81 83.3208C120.81 86.4492 123.647 88.9853 127.147 88.9853Z" fill="white"/>
<path d="M77.4399 5.98312C76.6862 5.91571 70.7953 10.7125 71.5973 17.9794C72.3994 25.2463 80.7242 22.7019 80.7242 22.7019C80.7242 22.7019 90.558 16.0348 88.641 13.3105C86.724 10.5863 80.7829 17.0702 80.7829 17.0702C81.3949 15.6303 86.1208 10.7574 83.7215 9.37804C81.3223 7.99864 76.4995 14.5534 76.4995 14.5534C75.8513 12.8974 82.2574 6.41181 77.4399 5.98312Z" fill="white"/>
<path d="M58.3457 14.9322C56.3388 15.7411 57.1184 19.1845 59.1097 22.4376C61.8287 26.8783 67.6799 30.982 69.5503 31.8342C70.4508 30.1056 63.7094 12.7715 58.3457 14.9322Z" fill="white"/>
<path d="M75.8843 31.1851C74.5014 31.5654 71.6596 36.2774 71.0183 38.6335C69.9017 37.6741 67.1982 35.503 65.0064 36.9983C65.0064 36.9983 61.6253 38.7856 60.9027 42.4208C59.4231 41.3715 56.4603 44.3844 56.9599 48.6713C54.8009 46.8788 53.6756 52.647 53.947 53.8363C51.0654 53.8363 51.9211 58.5829 52.2322 59.4057C52.5434 60.2285 56.5848 66.2526 56.5848 66.2526L58.9097 69.5265L63.2657 73.0891L68.0763 74.6863L71.3364 77.2671L76.7485 85.6904L81.5004 91.775L88.1346 97.035L96.2589 100.604L101.93 101.842L106.209 93.6038L106.224 89.1406L98.4853 84.6999L93.0403 80.3042L87.7855 73.217L83.8599 66.5793L82.28 60.4878L80.3785 50.2668L79.573 39.0829L78.93 33.2663C78.93 33.2663 77.4659 30.7512 75.8843 31.1851Z" fill="white"/>
<path d="M149.673 93.732L142.425 94.6257L143.5 103.101L148.503 105.127L159.695 103.957L172.893 101.039L185.28 96.5099L194.943 91.1167L200.051 86.7071L203.349 81.3071V77.5025L200.137 73.9503L201.686 69.9746L191.366 64.1406L190.035 64.9237L185.857 71.6409L185.28 72.5207L183.768 70.1785L182.462 70.5882L181.425 73.4438L179.019 78.0383L173.161 85.0615L164.774 89.6163L154.503 92.8522L149.673 93.732Z" fill="white"/>
<path d="M112.523 135.815L108.118 138.769L109.237 146.256L111.27 156.361L112.625 165.911L112.378 175.671L110.405 181.634L98.6821 173.951L75.8908 164.419L59.6682 161.246L47.9364 161.538L34.8062 164.798L24.5333 169.911L19.1073 175.928L14.7686 184.958L15.0538 191.435L18.0753 200.521L24.6629 207.558L31.1952 212.579L38.5088 216.74L52.3356 222.37L68.0293 226.672L80.9625 229.061L92.9899 230.278L103.567 231.032L110.996 231.517L118.172 231.908L130.567 232.318L144.256 232.07L154.342 231.263L167.531 229.047L179.026 225.647L187.697 221.858L197.154 216.109L205.153 209.775L211.311 202.823L215.732 196.393L219.969 187.503L222.007 180.426L222.894 173.204L222.163 165.415L218.45 157.776L214.458 154.886L208.709 153.638L202.892 154.477L198.631 156.48L195.403 158.675L192.174 162.421L188.879 165.908L182.376 175.233L175.125 185.468L166.02 195.032L156.978 202.458L150.715 205.565L146.582 207.689L144.581 208.012L138.574 204.33L129.34 197.808L124.675 193.468L130.256 187.421L134.266 181.351L136.84 174.556L137.606 169.201L136.154 162.921L133.924 155.576L132.415 152.236L135.352 154.826L142.532 159.261L146.816 160.663L153.704 160.767L158.608 158.898L163.877 154.299L167.692 148.475L171.056 142.244L174.902 136.664L178.668 133.632L181.259 133.229L184.373 135.105L188.504 136.861L191.333 136.664L192.633 133.319L191.926 127.259L189.652 121.812L186.124 117.388L181.323 115.236L177.251 116.235L170.798 119.67L162.461 126.135L155.946 132.973L149.552 140.078L146.842 138.155L142.963 134.162L138.251 128.97L118.83 133.632L112.523 135.815Z" fill="white"/>
<path d="M39.2072 139.355L34.9595 139.201L33.9841 166.058L38.2318 166.212L39.2072 139.355Z" fill="white"/>
<path d="M59.7901 141.082L56.1475 140.732L53.8704 164.467L57.5131 164.817L59.7901 141.082Z" fill="white"/>
<path d="M216.288 141.303L214.364 141.221L213.732 155.933L215.656 156.015L216.288 141.303Z" fill="white"/>
<path d="M108.381 139.466C108.381 139.466 115.684 135.362 122.063 137.218C122.766 138.385 124.089 141.263 124.089 141.263C124.089 141.263 130.35 133.639 141.404 131.929C138.605 129.772 138.605 125.559 138.605 125.559L122.153 122.182L108.679 124.494L107.764 131.824L108.381 139.466Z" fill="#485565"/>
<path d="M110.405 181.634C100.568 174.288 88.3643 167.367 70.3924 162.937C39.603 155.345 9.80938 172.326 15.4635 193.283C23.1211 221.67 78.8485 229.279 88.9382 229.99C134.31 233.186 178.043 237.918 207.745 206.911C226.913 186.898 226.895 158.454 213.276 154.467C186.694 146.688 184.182 193.916 145.314 208.108M204.122 210.282C175.225 217.214 158.055 214.863 145.2 208.407C137.483 204.528 131.349 199.288 124.669 193.468" stroke="#485565" stroke-width="1.325" stroke-linecap="round" stroke-linejoin="round"/>
<path d="M153.978 211.895C178.243 205.51 193.247 156.235 211.311 154.121" stroke="#485565" stroke-width="1.325" stroke-linecap="round" stroke-linejoin="round"/>
<path d="M170.036 214.404C186.697 208.636 199.096 158.04 215.369 155.328" stroke="#485565" stroke-width="1.325" stroke-linecap="round" stroke-linejoin="round"/>
<path d="M163.941 213.972C136.818 220.506 56.1247 187.622 37.4683 215.457" stroke="#485565" stroke-width="1.325" stroke-linecap="round" stroke-linejoin="round"/>
<path d="M104.022 191.031C71.9963 179.356 39.0878 167.204 15.0537 186.488M133.508 200.887C129.25 199.732 124.519 198.284 120.123 196.802" stroke="#485565" stroke-width="1.325" stroke-linecap="round" stroke-linejoin="round"/>
<path d="M119.79 196.941C118.593 199.128 111.741 199.579 111.522 201.662C111.041 206.2 131.86 207.119 136.202 202.611L133.508 200.883" fill="#485565"/>
<path d="M37.3904 117.799C28.566 117.837 21.4443 126.001 21.4875 136.035C21.5255 144.817 27.0362 152.111 34.3273 153.774C34.1988 153.201 34.2269 152.604 34.4086 152.045C34.4086 152.045 34.4172 152.045 34.4189 152.03C34.4345 150.089 34.5244 148.065 34.7111 145.548C34.736 145.065 34.725 144.581 34.6782 144.099C34.6782 143.985 34.6679 143.926 34.6627 143.862C34.6056 142.917 34.6195 142.346 34.7491 141.778C34.9807 140.761 36.0473 139.754 37.0723 139.735C37.2183 139.731 37.364 139.75 37.5044 139.79C38.3428 140.028 38.87 140.471 39.131 141.129C39.3177 141.603 39.3471 141.994 39.3454 143.003V143.09C39.3454 144.182 39.3143 145.053 39.2175 147.022C39.1207 148.991 39.0861 149.835 39.0861 150.911C39.0861 151.084 39.0965 151.169 39.1241 151.684C39.1449 152.044 39.1535 152.272 39.157 152.516C39.1805 153.03 39.1257 153.545 38.9945 154.044C47.136 153.179 53.4851 145.377 53.4453 135.894C53.4021 125.861 46.2164 117.761 37.3904 117.799Z" fill="#485565"/>
<path d="M57.9499 127.425C52.5637 127.715 47.7738 132.254 46.7142 138.487C45.5612 145.314 49.307 151.676 55.1513 153.094C55.1322 152.957 55.1322 152.819 55.1513 152.682C55.1513 152.667 55.16 152.655 55.1634 152.629C55.1755 152.529 55.179 152.496 55.179 152.477C55.1995 151.416 55.3369 150.36 55.5887 149.329C55.6385 148.993 55.6622 148.653 55.6595 148.313C55.6751 147.633 55.6855 147.396 55.7079 147.032C55.7247 146.371 55.8377 145.716 56.0433 145.087C56.0433 145.04 56.0346 144.987 56.0312 144.942C56.0025 144.686 56.0321 144.427 56.1176 144.185C56.1891 144.004 56.3207 143.854 56.4902 143.76C56.6597 143.665 56.8566 143.632 57.0476 143.666C57.1592 143.694 57.268 143.732 57.3726 143.78C57.4343 143.765 57.4974 143.756 57.561 143.753C57.6684 143.759 57.774 143.783 57.8738 143.824C57.9344 143.777 58.0051 143.745 58.0802 143.731C58.1553 143.717 58.2326 143.721 58.306 143.742C58.4141 143.773 58.5129 143.831 58.5939 143.909C58.675 143.987 58.7357 144.083 58.771 144.19C59.0172 144.852 59.1203 145.559 59.0735 146.264C59.0176 146.838 58.9293 147.408 58.809 147.972C58.7762 148.136 58.7433 148.294 58.6897 148.544C58.6189 150.012 58.484 151.545 58.2317 153.384C63.5678 153.039 68.2954 148.518 69.3429 142.321C70.5425 135.224 66.4493 128.616 60.2022 127.559C59.8163 127.492 59.4266 127.449 59.0354 127.43C58.674 127.408 58.3116 127.406 57.9499 127.425Z" fill="#485565"/>
<path d="M215.494 131.719C211.81 131.797 208.6 135.186 208.153 139.655C207.71 144.063 210.113 147.969 213.63 148.847C213.63 148.453 213.63 147.9 213.63 147.784C213.63 145.838 213.687 144.647 213.923 143.392C214.053 142.878 214.267 142.39 214.555 141.945C214.778 141.611 215.02 141.383 215.328 141.302C215.433 141.273 215.543 141.266 215.651 141.28C215.818 141.31 215.975 141.382 216.108 141.487C216.241 141.593 216.346 141.729 216.413 141.885C216.73 142.484 216.802 143.516 216.749 145.126C216.737 145.471 216.719 145.817 216.693 146.292C216.629 147.468 216.629 147.553 216.629 147.848C216.615 148.183 216.57 148.516 216.495 148.842C219.629 148.125 222.199 145.055 222.593 141.102C223.07 136.336 220.225 132.146 216.241 131.746C215.992 131.722 215.743 131.712 215.494 131.719Z" fill="#485565"/>
<path d="M54.4395 161.075L55.8068 144.999C55.8788 144.573 56.1081 144.189 56.4493 143.923C56.7905 143.658 57.2189 143.529 57.65 143.564C58.081 143.599 58.4834 143.794 58.7777 144.111C59.072 144.428 59.2368 144.843 59.2397 145.276L58.0297 161.078" stroke="#485565" stroke-width="1.325" stroke-linecap="round" stroke-linejoin="round"/>
<path d="M213.498 154.395L213.99 142.555C214.015 142.203 214.176 141.875 214.439 141.64C214.701 141.405 215.045 141.282 215.397 141.296C215.75 141.31 216.082 141.461 216.325 141.717C216.568 141.973 216.701 142.313 216.697 142.665L216.191 155.327" stroke="#485565" stroke-width="1.325" stroke-linecap="round" stroke-linejoin="round"/>
<path d="M33.9595 164.937L34.9015 141.998C34.933 141.432 35.1847 140.901 35.603 140.518C36.0212 140.135 36.5727 139.932 37.1393 139.95C37.706 139.969 38.2427 140.209 38.6348 140.619C39.0268 141.028 39.2429 141.575 39.2368 142.142L38.694 163.514" stroke="#485565" stroke-width="1.325" stroke-linecap="round" stroke-linejoin="round"/>
<path d="M52.9906 131.93C54.6276 136.688 52.8454 142.842 50.1558 146.581" stroke="#68E89C" stroke-width="1.325" stroke-linecap="round" stroke-linejoin="round"/>
<path d="M108.628 124.471C104.959 143.658 115.183 158.301 112.226 176.699C110.497 187.512 98.5698 192.122 103.73 199.396C109.05 206.887 132.87 191.901 136.84 174.556C138.59 166.914 134.929 158.358 131.309 151.148" stroke="#485565" stroke-width="1.325" stroke-linecap="round" stroke-linejoin="round"/>
<path d="M120.339 131.992C122.711 145.409 142.496 168.219 158.608 158.897C168.634 153.096 169.726 138.714 178.487 133.724C182.772 131.285 187.263 139.019 190.983 136.405C196.125 132.79 188.426 111.726 178.423 115.743C165.631 120.882 158.048 130.331 149.758 140.083" stroke="#485565" stroke-width="1.325" stroke-linecap="round" stroke-linejoin="round"/>
<path d="M138.605 125.553C139.945 132.151 146.228 138.704 152.03 141.711" stroke="#485565" stroke-width="1.325" stroke-linecap="round" stroke-linejoin="round"/>
<path d="M70.5258 50.3029C70.0332 39.6929 73.0081 31.2557 76.3131 31.1883C81.8722 31.076 77.3036 42.3013 82.7088 62.1453C85.376 71.9256 91.7441 83.0057 111.177 91.7765" stroke="#485565" stroke-width="1.325" stroke-linecap="round" stroke-linejoin="round"/>
<path d="M71.1533 38.7787C66.5864 33.8159 60.1941 38.3258 60.9651 44.5452C61.8881 51.978 68.9044 61.4852 72.3529 59.8776C76.116 58.1266 68.576 50.2892 66.6002 40.6559" stroke="#485565" stroke-width="1.325" stroke-linecap="round" stroke-linejoin="round"/>
<path d="M60.9008 42.4228C56.6019 42.2378 53.6253 51.0933 65.2586 61.482C67.3985 63.3938 70.4719 62.8804 69.1098 59.3472" stroke="#485565" stroke-width="1.325" stroke-linecap="round" stroke-linejoin="round"/>
<path d="M56.7592 48.6738C49.7256 50.252 57.2501 66.466 64.3026 65.4513C66.2559 65.1713 66.3268 63.1731 65.3986 61.7211" stroke="#485565" stroke-width="1.325" stroke-linecap="round" stroke-linejoin="round"/>
<path d="M53.9446 53.8379C51.1685 54.4291 51.0717 58.1939 53.6179 62.3079C53.6888 62.4237 53.7631 62.5412 53.8391 62.6536C54.3712 63.4645 54.9629 64.2347 55.6092 64.9578C59.4363 69.2637 62.6134 68.2023 60.9107 65.0235" stroke="#485565" stroke-width="1.325" stroke-linecap="round" stroke-linejoin="round"/>
<path d="M57.5215 67.0938C60.0573 72.3728 62.664 73.0711 67.1548 74.3451C72.2697 75.7954 75.0596 83.6794 78.2298 87.9438C85.9669 98.3619 97.1196 102.464 109.415 102.317" stroke="#485565" stroke-width="1.325" stroke-linecap="round" stroke-linejoin="round"/>
<path d="M138.564 103.571C156.446 109.066 201.057 95.9149 203.686 79.9204C204.267 74.7347 196.734 71.5057 197.875 75.1634" stroke="#485565" stroke-width="1.325" stroke-linecap="round" stroke-linejoin="round"/>
<path d="M141.397 94.7267C152.023 93.776 166.529 91.4718 174.772 83.6639C182.136 76.6943 180.831 70.0082 183.458 70.181C184.641 70.2588 185.393 71.7177 185.258 73.3478" stroke="#485565" stroke-width="1.325" stroke-linecap="round" stroke-linejoin="round"/>
<path d="M192.348 88.7228C193.444 87.0806 193.919 84.7626 193.489 82.8163C193.304 81.9779 192.091 80.455 192.488 79.6167C193.052 78.4205 194.811 79.2709 195.373 79.9624C196.559 81.4403 197.169 83.9208 196.963 85.805" stroke="#485565" stroke-width="1.325" stroke-linecap="round" stroke-linejoin="round"/>
<path d="M194.07 79.0164C193.327 77.2066 194.818 76.7278 196.224 77.3933C198.298 78.3768 199.826 80.3768 199.568 82.7328" stroke="#485565" stroke-width="1.325" stroke-linecap="round" stroke-linejoin="round"/>
<path d="M195.937 77.1087C195.204 75.3283 196.734 74.6006 198.646 75.6481C200.72 76.7855 201.411 78.4553 201.674 80.3757" stroke="#485565" stroke-width="1.325" stroke-linecap="round" stroke-linejoin="round"/>
<path d="M112.53 175.234C113.102 174.167 115.026 171.887 117.512 171.504C122.803 170.688 124.426 176.644 128.123 174.911C131.549 173.301 131.103 163.471 136.225 164.078" stroke="#485565" stroke-width="1.325" stroke-linecap="round" stroke-linejoin="round"/>
<path d="M137.075 170.652C134.828 174.557 125.995 196.106 104.578 200.285" stroke="#485565" stroke-width="1.325" stroke-linecap="round" stroke-linejoin="round"/>
<path d="M105.961 189.155C111.194 191.155 112.962 194.315 114.367 192.958C116.428 190.958 109.597 187.193 107.761 186.908" stroke="#485565" stroke-width="1.325" stroke-linecap="round" stroke-linejoin="round"/>
<path d="M109.897 183.793C115.977 184.83 118.475 188.784 119.963 187.345C122.383 185.005 114.753 181.237 111.182 180.668" stroke="#485565" stroke-width="1.325" stroke-linecap="round" stroke-linejoin="round"/>
<path d="M179.561 133.229C174.029 129.553 181.431 126.514 179.806 122.711C178.698 120.118 173.237 120.652 172.731 119.043" stroke="#485565" stroke-width="1.325" stroke-linecap="round" stroke-linejoin="round"/>
<path d="M190.549 136.665C192.042 130.042 186.035 118.359 180.29 115.273" stroke="#485565" stroke-width="1.325" stroke-linecap="round" stroke-linejoin="round"/>
<path d="M181.885 133.319C182.089 131.879 182.101 129.826 184.373 128.334" stroke="#485565" stroke-width="1.325" stroke-linecap="round" stroke-linejoin="round"/>
<path d="M184.186 134.311C184.279 133.191 184.687 131.719 186.409 130.695" stroke="#485565" stroke-width="1.325" stroke-linecap="round" stroke-linejoin="round"/>
<path d="M108.438 88.0197C106.95 87.5011 106.018 88.2254 105.513 89.5962C104.457 92.4379 104.175 94.7214 103.439 96.3894C102.329 98.8976 100.2 101.005 100.379 103.342C100.602 106.308 109.418 105.729 109.418 105.729C109.418 105.729 106.868 113.049 106.03 118.123C105.857 119.2 106.115 123.009 108.542 124.47C110.343 125.552 114.265 125.227 116.948 124.47C119.046 123.877 122.047 122.175 126.455 123.661C130.093 124.887 135.616 127.637 139.419 125.552C141.398 124.47 138.596 118.778 137.286 114.443C136.485 111.675 136.11 108.801 136.175 105.921C136.175 105.921 144.275 107.884 146.487 106.693C150.245 104.668 146.926 102.026 146.11 99.1742C145.312 96.386 148.53 94.1613 146.577 91.7759C145.312 90.2202 141.855 91.1985 139.732 91.7759C135.215 93.0032 133.587 93.0654 126.918 93.119C125.091 93.1328 119.682 92.348 117.952 91.7759C115.309 90.9116 111.867 89.3559 109.409 88.2341C108.415 87.7794 106.471 87.4234 106.218 89.1416" fill="#68E89C"/>
<path d="M109.418 105.362C109.937 104.866 110.746 103.962 111.201 102.93" stroke="#485565" stroke-width="1.325" stroke-linecap="round" stroke-linejoin="round"/>
<path d="M134.31 103.492C134.574 104.235 135.044 105.335 135.782 105.729" stroke="#485565" stroke-width="1.325" stroke-linecap="round" stroke-linejoin="round"/>
<path d="M121 135.044C120.612 133.599 120.083 130.377 120.529 127.338" stroke="#68E89C" stroke-width="1.325" stroke-linecap="round" stroke-linejoin="round"/>
<path d="M126.923 89.1783C130.56 89.1783 133.508 86.5238 133.508 83.2493C133.508 79.9748 130.56 77.3203 126.923 77.3203C123.287 77.3203 120.339 79.9748 120.339 83.2493C120.339 86.5238 123.287 89.1783 126.923 89.1783Z" stroke="#485565" stroke-width="1.325" stroke-linecap="round" stroke-linejoin="round"/>
<path d="M130.455 78.225C129.434 69.29 146.266 70.7921 153.35 69.328C158.942 68.1682 162.512 63.5166 167.789 62.0231C171.135 61.0758 177.153 60.5503 178.418 64.7369C178.677 65.6012 178.675 66.9564 178.235 67.7827C175.97 72.0263 169.723 71.8206 165.951 73.6374C163.3 74.9165 162.84 78.3806 160.104 79.8602C155.703 82.2422 151.668 80.9354 146.794 81.6476C142.707 82.2456 137.573 86.3389 133.508 84.7123C133.508 84.7123 133.707 82.3839 133.076 80.9216C132.445 79.4592 130.483 78.4532 130.455 78.225Z" fill="#485565"/>
<path d="M128.071 77.8738C127.276 80.2644 126.918 82.2436 128.417 84.4614C128.884 85.1528 130.799 87.4414 131.845 87.2271C132.38 87.1199 132.882 85.7111 133.055 85.2565C134.078 82.6326 133.722 80.6274 131.43 78.9559C130.965 78.6102 128.154 76.745 127.731 77.5385" fill="#485565"/>
<path d="M123.218 82.2148C122.488 83.411 122.514 84.7023 123.539 85.347C124.315 85.8362 125.689 85.245 126.455 84.2667" stroke="#485565" stroke-width="1.325" stroke-linecap="round" stroke-linejoin="round"/>
<path d="M69.8773 60.4895C70.9611 65.7237 73.5937 69.8549 76.9247 72.6742M74.1728 22.8672C71.0752 28.4557 69.2274 38.4693 68.5757 46.1147" stroke="#485565" stroke-width="1.325" stroke-linecap="round" stroke-linejoin="round"/>
<path d="M70.3922 31.9908C68.1122 19.6782 60.2265 11.9394 57.5213 15.6472C55.8912 17.8788 57.1289 23.6314 70.3922 32.703" stroke="#485565" stroke-width="1.325" stroke-linecap="round" stroke-linejoin="round"/>
<path d="M60.1538 18.5586C63.006 23.1324 66.3957 28.3371 70.3921 32.0415" stroke="#485565" stroke-width="1.325" stroke-linecap="round" stroke-linejoin="round"/>
<path d="M77.9878 6.08599C74.3699 4.64782 67.5472 18.5939 74.5306 22.6803C80.9039 26.414 90.5666 15.2837 88.7049 13.365C86.8432 11.4463 80.814 16.995 80.814 16.995C80.814 16.995 86.119 11.104 83.7249 9.38929C81.3308 7.67455 76.5565 14.6649 76.5565 14.6649C76.5565 14.6649 80.693 7.16289 77.9878 6.08599Z" stroke="#485565" stroke-width="1.325" stroke-linecap="round" stroke-linejoin="round"/>
<path d="M192.348 88.722L191.797 89.7038C191.697 89.8821 191.563 90.0389 191.402 90.1653C191.241 90.2916 191.057 90.3851 190.86 90.4403C190.664 90.4955 190.458 90.5114 190.255 90.4871C190.052 90.4628 189.856 90.3987 189.678 90.2985L180.437 85.1127C180.077 84.9107 179.813 84.5742 179.701 84.1771C179.59 83.78 179.64 83.3549 179.842 82.9952L189.985 64.942C190.187 64.5825 190.524 64.3179 190.921 64.2064C191.318 64.0949 191.743 64.1456 192.103 64.3474L201.345 69.5331C201.705 69.7355 201.969 70.0721 202.08 70.4692C202.191 70.8662 202.14 71.2912 201.938 71.6506L200.514 74.1968" stroke="#485565" stroke-width="1.325" stroke-linejoin="round"/>
<path d="M193.999 85.4302C193.982 85.2614 193.975 85.0917 193.978 84.922C193.978 84.8563 193.978 84.8045 193.988 84.6956M193.988 84.6956C194.006 84.5013 194.009 84.3061 193.999 84.1113C193.968 83.7172 193.843 83.3646 193.567 82.8322C193.567 82.8166 193.515 82.7336 193.48 82.6697L189.359 89.9452L190.04 90.2218C190.04 90.2218 191.294 90.1596 191.423 90.0057C191.453 89.9677 192.969 87.2642 194.004 85.4302M201.053 69.332L198.732 73.4218L198.892 73.4115C199.42 73.3803 199.788 73.4305 200.115 73.6535C200.242 73.7437 200.363 73.8431 200.476 73.9508C200.87 73.2593 202.194 70.905 202.194 70.905L201.691 69.9751L201.053 69.332Z" fill="#485565"/>
<path d="M193.871 67.7949L196.64 69.3333" stroke="#485565" stroke-width="0.946429" stroke-linecap="round" stroke-linejoin="round"/>
<path d="M193.885 56.1116C193.84 55.9007 193.923 47.123 193.923 47.123" stroke="#68E89C" stroke-width="2.27143" stroke-linecap="round" stroke-linejoin="round"/>
<path d="M204.446 59.762C204.562 59.6686 212.107 52.457 212.107 52.457" stroke="#68E89C" stroke-width="2.27143" stroke-linecap="round" stroke-linejoin="round"/>
<path d="M209.831 67.7949L220.365 68.2997" stroke="#68E89C" stroke-width="2.27143" stroke-linecap="round" stroke-linejoin="round"/>
</svg>
